<?xml version="1.0" encoding="utf-8"?>
<!-- Generator: Adobe Illustrator 17.0.0, SVG Export Plug-In . SVG Version: 6.00 Build 0)  -->
<!DOCTYPE svg PUBLIC "-//W3C//DTD SVG 1.1//EN" "http://www.w3.org/Graphics/SVG/1.1/DTD/svg11.dtd">
<svg version="1.1" id="Layer_1" xmlns="http://www.w3.org/2000/svg" xmlns:xlink="http://www.w3.org/1999/xlink" x="0px" y="0px"
	 width="111.604px" height="49.401px" viewBox="0 0 111.604 49.401" enable-background="new 0 0 111.604 49.401"
	 xml:space="preserve">
<path fill="#9F1D2B" d="M24.338,15.097l0.25,0.022l-1.039,5.197l-0.867,9.559l-13.13,0.803L24.338,15.097z M0,32.655l1.027,7.123
	l20.581-1.814l-0.623,10.59l8.622,0.847l0.195-11.362l6.775-0.891l0.527-7.65l-6.715,0.227l2.155-24.529l-12.331-1.12L0,32.655z"/>
<path fill="#9F1D2B" d="M98.838,15.097l0.25,0.022l-1.039,5.197l-0.867,9.559l-13.131,0.803L98.838,15.097z M74.5,32.655
	l1.027,7.123l20.581-1.814l-0.623,10.59l8.621,0.847l0.196-11.362l6.775-0.891l0.527-7.65l-6.715,0.227l2.155-24.529l-12.331-1.12
	L74.5,32.655z"/>
<g>
	<defs>
		<rect id="SVGID_1_" y="0" width="111.604" height="49.401"/>
	</defs>
	<clipPath id="SVGID_2_">
		<use xlink:href="#SVGID_1_"  overflow="visible"/>
	</clipPath>
	<path clip-path="url(#SVGID_2_)" fill="#9F1D2B" d="M40.876,26.272c0-7.695,1.317-13.414,3.952-17.157
		C47.462,5.372,51.247,3.5,56.182,3.5c5.269,0,9.137,1.851,11.605,5.552c2.468,3.701,3.701,9.441,3.701,17.22
		c0,7.737-1.328,13.487-3.983,17.251c-2.656,3.764-6.451,5.645-11.386,5.645c-5.228,0-9.075-1.975-11.542-5.927
		C42.108,39.289,40.876,33.633,40.876,26.272 M50.733,22.955c-0.514,4.967-0.373,8.858,0.426,11.676
		c0.798,2.819,2.439,4.356,4.922,4.613c2.401,0.249,4.29-0.81,5.667-3.176c1.376-2.367,2.344-6.257,2.905-11.672
		c0.51-4.924,0.374-8.785-0.405-11.581c-0.781-2.796-2.452-4.327-5.017-4.592c-2.441-0.253-4.333,0.827-5.673,3.238
		C52.218,13.874,51.277,17.705,50.733,22.955"/>
	<path clip-path="url(#SVGID_2_)" fill="#FFDD15" d="M36.577,33.648l-6.775,0.891l-0.195,11.362l-8.621-0.846l0.623-10.59
		L1.027,36.278L0,29.155L20.213,0.577l12.331,1.119L30.39,26.225l6.715-0.227L36.577,33.648z M23.55,16.816l1.039-5.196l-0.25-0.023
		L9.552,27.178l13.13-0.803L23.55,16.816z"/>
	<path clip-path="url(#SVGID_2_)" fill="#FFDD15" d="M111.077,33.648l-6.775,0.891l-0.195,11.362l-8.621-0.846l0.623-10.59
		l-20.582,1.813L74.5,29.155L94.713,0.577l12.331,1.119l-2.154,24.529l6.715-0.227L111.077,33.648z M98.05,16.816l1.039-5.196
		l-0.25-0.023L84.052,27.178l13.13-0.803L98.05,16.816z"/>
	<path clip-path="url(#SVGID_2_)" fill="#FFDD15" d="M40.876,22.772c0-7.695,1.317-13.414,3.952-17.157
		C47.462,1.872,51.247,0,56.182,0c5.269,0,9.137,1.851,11.605,5.552c2.468,3.701,3.701,9.441,3.701,17.22
		c0,7.737-1.328,13.487-3.983,17.251c-2.656,3.764-6.451,5.645-11.386,5.645c-5.228,0-9.075-1.975-11.542-5.927
		C42.108,35.789,40.876,30.133,40.876,22.772 M50.733,19.455c-0.514,4.967-0.373,8.858,0.426,11.676
		c0.798,2.819,2.439,4.356,4.922,4.613c2.401,0.249,4.29-0.81,5.667-3.176c1.376-2.367,2.344-6.257,2.905-11.672
		c0.51-4.924,0.374-8.785-0.405-11.581c-0.781-2.796-2.452-4.327-5.017-4.592C56.79,4.47,54.898,5.55,53.558,7.961
		C52.218,10.374,51.277,14.205,50.733,19.455"/>
</g>
</svg>
