<?xml version="1.0" encoding="utf-8"?>
<!-- Generator: Adobe Illustrator 17.0.0, SVG Export Plug-In . SVG Version: 6.00 Build 0)  -->
<!DOCTYPE svg PUBLIC "-//W3C//DTD SVG 1.1//EN" "http://www.w3.org/Graphics/SVG/1.1/DTD/svg11.dtd">
<svg version="1.1" id="Layer_1" xmlns="http://www.w3.org/2000/svg" xmlns:xlink="http://www.w3.org/1999/xlink" x="0px" y="0px"
	 width="151px" height="61.007px" viewBox="0 0 151 61.007" enable-background="new 0 0 151 61.007" xml:space="preserve">
<g>
	<defs>
		<path id="SVGID_1_" d="M76.48,0.134c-8.213,16.189-24.594,12.665-33.561,3.712c-0.017,0.006-0.013,0.005-0.031,0.011
			c-3.348,15.007-23.549,12.056-31.669,9.719C21.735,27.221,6.716,28.595,0,29.808c20.078,0.018,19.507,13.557,15.762,20.502
			c-0.118,0.157-0.007,0.347,0.192,0.275c14.411-10.383,26.555-0.689,28.861,9.238c0.006,0.026,0.002,0.051,0.01,0.075
			c0.076,0.263,0.071,0.403,0.149,0.141c6.723-12.82,32.379-15.254,42.835,0.968c10.337-17.645,35.318-19.747,51.07-10.499
			c-8.592-11.284-2.599-20.105,11.942-21.517c0.114,0.002,0.177-0.083,0.179-0.165v-0.009c-0.002-0.069-0.047-0.135-0.142-0.144
			c-17.337-2.537-23.112-6.504-21.893-17.383c0.078-0.156-0.003-0.339-0.17-0.265c-11.885,8.075-24.148,3.312-26.914-8.177
			c-0.033-0.139-0.181-0.211-0.297-0.113C89.856,14.951,81.008,10.773,76.48,0.134L76.48,0.134 M76.505,0
			c-0.008,0.005-0.023,0.049-0.025,0.134C76.512,0.051,76.514,0.005,76.508,0H76.505z"/>
	</defs>
	<clipPath id="SVGID_2_">
		<use xlink:href="#SVGID_1_"  overflow="visible"/>
	</clipPath>
	
		<radialGradient id="SVGID_3_" cx="0.9805" cy="59.9748" r="1" gradientTransform="matrix(64.3928 10.4265 -10.0097 -47.7343 613.2312 2884.5071)" gradientUnits="userSpaceOnUse">
		<stop  offset="0" style="stop-color:#EC1C24"/>
		<stop  offset="0.9313" style="stop-color:#BE1E2D"/>
		<stop  offset="1" style="stop-color:#BE1E2D"/>
	</radialGradient>
	<polygon clip-path="url(#SVGID_2_)" fill="url(#SVGID_3_)" points="-18.55,-27.454 151,0 169.55,88.461 0,61.007 	"/>
</g>
<g>
	<defs>
		<rect id="SVGID_4_" y="0" width="151" height="61.007"/>
	</defs>
	<clipPath id="SVGID_5_">
		<use xlink:href="#SVGID_4_"  overflow="visible"/>
	</clipPath>
	<path clip-path="url(#SVGID_5_)" fill="#9F1D2B" d="M17.894,25.664c1.858-1.165,4.144-2.045,6.461-2.466
		c4.257-0.775,7.735,0.28,8.167,3.235c0.286,1.897-0.6,3.426-2.218,5.264c2.88-0.159,5.049,1.015,5.47,3.973
		c0.661,4.826-4.88,8.009-9.784,8.967c-1.111,0.213-2.153,0.305-3.13,0.274C21.222,38.491,19.567,32.076,17.894,25.664
		 M24.526,32.085c1.918-0.446,3.323-1.803,3.079-3.249c-0.212-1.251-1.273-1.727-2.605-1.484c-0.546,0.099-1.091,0.344-1.532,0.743
		C23.823,29.425,24.175,30.755,24.526,32.085 M26.778,39.784c2.018-0.459,3.68-1.679,3.424-3.238
		c-0.199-1.196-1.145-1.468-2.413-1.243c-0.76,0.134-1.513,0.444-2.008,0.851C26.115,37.364,26.446,38.574,26.778,39.784"/>
	<path clip-path="url(#SVGID_5_)" fill="none" stroke="#9F1D2B" stroke-miterlimit="10" d="M17.894,25.664
		c1.858-1.165,4.144-2.045,6.461-2.466c4.257-0.775,7.735,0.28,8.167,3.235c0.286,1.897-0.6,3.426-2.218,5.264
		c2.88-0.159,5.049,1.015,5.47,3.973c0.661,4.826-4.88,8.009-9.784,8.967c-1.111,0.213-2.153,0.305-3.13,0.274
		C21.222,38.491,19.567,32.076,17.894,25.664z M24.526,32.085c1.918-0.446,3.323-1.803,3.079-3.249
		c-0.212-1.251-1.273-1.727-2.605-1.484c-0.546,0.099-1.091,0.344-1.532,0.743C23.823,29.425,24.175,30.755,24.526,32.085z
		 M26.778,39.784c2.018-0.459,3.68-1.679,3.424-3.238c-0.199-1.196-1.145-1.468-2.413-1.243c-0.76,0.134-1.513,0.444-2.008,0.851
		C26.115,37.364,26.446,38.574,26.778,39.784z"/>
	<path clip-path="url(#SVGID_5_)" fill="#9F1D2B" d="M47.197,38.185c-0.531-1.674-1.068-3.348-1.611-5.019
		c-1.479,0.225-2.956,0.463-4.431,0.714c-0.047,1.513-0.089,3.024-0.128,4.536c-1.714,0.333-3.424,0.684-5.131,1.052
		c0.502-7.25,1.145-14.507,1.928-21.765c2.083-0.47,4.173-0.916,6.269-1.338c2.95,6.975,5.737,13.993,8.359,21.05
		C50.698,37.653,48.946,37.91,47.197,38.185 M41.879,23.14c-0.203,2.258-0.394,4.515-0.573,6.772
		c1.022-0.126,2.045-0.245,3.068-0.358C43.556,27.412,42.724,25.274,41.879,23.14"/>
	<path clip-path="url(#SVGID_5_)" fill="none" stroke="#9F1D2B" stroke-miterlimit="10" d="M47.197,38.185
		c-0.531-1.674-1.068-3.348-1.611-5.019c-1.479,0.225-2.956,0.463-4.431,0.714c-0.047,1.513-0.089,3.024-0.128,4.536
		c-1.714,0.333-3.424,0.684-5.131,1.052c0.502-7.25,1.145-14.507,1.928-21.765c2.083-0.47,4.173-0.916,6.269-1.338
		c2.95,6.975,5.737,13.993,8.359,21.05C50.698,37.653,48.946,37.91,47.197,38.185z M41.879,23.14
		c-0.203,2.258-0.394,4.515-0.573,6.772c1.022-0.126,2.045-0.245,3.068-0.358C43.556,27.412,42.724,25.274,41.879,23.14z"/>
	<path clip-path="url(#SVGID_5_)" fill="#9F1D2B" d="M63.867,41.249c-2.186-3.906-4.467-7.783-6.842-11.629
		c0.371,3.782,0.738,7.565,1.102,11.347c-1.612-0.109-3.228-0.202-4.847-0.28c-0.64-6.333-1.284-12.666-1.93-18.998
		c1.845-0.566,3.7-1.112,5.564-1.64c1.808,3.441,3.557,6.9,5.244,10.375c-0.264-3.574-0.531-7.147-0.8-10.72
		c2.029-0.221,4.062-0.42,6.098-0.595c-0.411,7.136-0.77,14.272-1.077,21.409C65.539,40.757,64.701,41.001,63.867,41.249"/>
	<path clip-path="url(#SVGID_5_)" fill="none" stroke="#9F1D2B" stroke-miterlimit="10" d="M63.867,41.249
		c-2.186-3.906-4.467-7.783-6.842-11.629c0.371,3.782,0.738,7.565,1.102,11.347c-1.612-0.109-3.228-0.202-4.847-0.28
		c-0.64-6.333-1.284-12.666-1.93-18.998c1.845-0.566,3.7-1.112,5.564-1.64c1.808,3.441,3.557,6.9,5.244,10.375
		c-0.264-3.574-0.531-7.147-0.8-10.72c2.029-0.221,4.062-0.42,6.098-0.595c-0.411,7.136-0.77,14.272-1.077,21.409
		C65.539,40.757,64.701,41.001,63.867,41.249z"/>
	<path clip-path="url(#SVGID_5_)" fill="#9F1D2B" d="M67.591,35.624c2.564-5.116,5.292-10.193,8.184-15.223
		c-2.455,0.127-4.907,0.288-7.355,0.483c-0.004-1.796-0.006-3.592-0.008-5.387c5.609-0.391,11.236-0.609,16.871-0.652
		c-2.981,5.147-5.802,10.343-8.461,15.58c2.379-0.07,4.759-0.108,7.141-0.112c-0.135,2.412-0.268,4.824-0.398,7.237
		C78.283,36.74,72.956,36.097,67.591,35.624"/>
	<path clip-path="url(#SVGID_5_)" fill="none" stroke="#9F1D2B" stroke-miterlimit="10" d="M67.591,35.624
		c2.564-5.116,5.292-10.193,8.184-15.223c-2.455,0.127-4.907,0.288-7.355,0.483c-0.004-1.796-0.006-3.592-0.008-5.387
		c5.609-0.391,11.236-0.609,16.871-0.652c-2.981,5.147-5.802,10.343-8.461,15.58c2.379-0.07,4.759-0.108,7.141-0.112
		c-0.135,2.412-0.268,4.824-0.398,7.237C78.283,36.74,72.956,36.097,67.591,35.624z"/>
	<path clip-path="url(#SVGID_5_)" fill="#9F1D2B" d="M95.01,41.031c-0.199-1.744-0.405-3.488-0.617-5.232
		c-1.473-0.057-2.945-0.101-4.417-0.132c-0.328,1.476-0.652,2.953-0.971,4.43c-1.718,0.004-3.435,0.026-5.15,0.066
		c1.836-7.025,3.811-14.03,5.926-21.011c2.102-0.069,4.207-0.113,6.315-0.133c1.548,7.404,2.929,14.821,4.142,22.243
		C98.495,41.167,96.753,41.09,95.01,41.031 M92.685,25.255c-0.619,2.179-1.226,4.36-1.821,6.542c1.011,0.07,2.023,0.145,3.033,0.226
		C93.507,29.766,93.103,27.51,92.685,25.255"/>
	<path clip-path="url(#SVGID_5_)" fill="none" stroke="#9F1D2B" stroke-miterlimit="10" d="M95.01,41.031
		c-0.199-1.744-0.405-3.488-0.617-5.232c-1.473-0.057-2.945-0.101-4.417-0.132c-0.328,1.476-0.652,2.953-0.971,4.43
		c-1.718,0.004-3.435,0.026-5.15,0.066c1.836-7.025,3.811-14.03,5.926-21.011c2.102-0.069,4.207-0.113,6.315-0.133
		c1.548,7.404,2.929,14.821,4.142,22.243C98.495,41.167,96.753,41.09,95.01,41.031z M92.685,25.255
		c-0.619,2.179-1.226,4.36-1.821,6.542c1.011,0.07,2.023,0.145,3.033,0.226C93.507,29.766,93.103,27.51,92.685,25.255z"/>
	<path clip-path="url(#SVGID_5_)" fill="#9F1D2B" d="M110.628,40.018c-1.427-4.252-2.952-8.494-4.575-12.722
		c-0.351,3.784-0.706,7.568-1.065,11.351c-1.577-0.415-3.16-0.814-4.749-1.198c0.57-6.34,1.138-12.68,1.703-19.02
		c1.933-0.204,3.874-0.388,5.821-0.551c1.138,3.723,2.213,7.452,3.227,11.186c0.417-3.559,0.831-7.118,1.243-10.678
		c2.054,0.17,4.109,0.364,6.163,0.581c-1.763,6.927-3.475,13.865-5.136,20.813C112.381,39.855,111.504,39.934,110.628,40.018"/>
	<path clip-path="url(#SVGID_5_)" fill="none" stroke="#9F1D2B" stroke-miterlimit="10" d="M110.628,40.018
		c-1.427-4.252-2.952-8.494-4.575-12.722c-0.351,3.784-0.706,7.568-1.065,11.351c-1.577-0.415-3.16-0.814-4.749-1.198
		c0.57-6.34,1.138-12.68,1.703-19.02c1.933-0.204,3.874-0.388,5.821-0.551c1.138,3.723,2.213,7.452,3.227,11.186
		c0.417-3.559,0.831-7.118,1.243-10.678c2.054,0.17,4.109,0.364,6.163,0.581c-1.763,6.927-3.475,13.865-5.136,20.813
		C112.381,39.855,111.504,39.934,110.628,40.018z"/>
	<path clip-path="url(#SVGID_5_)" fill="#FFDD15" d="M16.339,23.891c1.856-1.167,4.138-2.049,6.454-2.472
		c4.253-0.778,7.729,0.274,8.165,3.228c0.287,1.897-0.597,3.427-2.211,5.266c2.877-0.162,5.046,1.011,5.469,3.969
		c0.666,4.825-4.867,8.012-9.765,8.975c-1.11,0.213-2.15,0.306-3.127,0.276C19.68,36.715,18.018,30.301,16.339,23.891
		 M22.973,30.306c1.916-0.448,3.319-1.806,3.074-3.252c-0.214-1.25-1.275-1.726-2.605-1.482c-0.546,0.1-1.09,0.345-1.53,0.745
		C22.267,27.646,22.621,28.976,22.973,30.306 M25.232,38.003c2.016-0.461,3.675-1.683,3.417-3.241
		c-0.2-1.196-1.146-1.466-2.412-1.241c-0.76,0.135-1.511,0.445-2.005,0.853C24.566,35.583,24.9,36.793,25.232,38.003"/>
	<path clip-path="url(#SVGID_5_)" fill="#FFDD15" d="M46.433,36.306c-0.526-1.676-1.058-3.35-1.598-5.023
		c-1.478,0.221-2.954,0.456-4.428,0.703c-0.05,1.512-0.096,3.024-0.137,4.536c-1.713,0.329-3.423,0.675-5.128,1.039
		c0.516-7.249,1.174-14.503,1.972-21.76c2.083-0.465,4.172-0.906,6.268-1.322c2.932,6.982,5.699,14.007,8.302,21.07
		C49.931,35.783,48.18,36.036,46.433,36.306 M41.154,21.248c-0.208,2.257-0.404,4.514-0.587,6.77
		c1.021-0.123,2.043-0.239,3.065-0.35C42.82,25.524,41.994,23.384,41.154,21.248"/>
	<path clip-path="url(#SVGID_5_)" fill="#FFDD15" d="M63.079,39.411c-2.174-3.911-4.443-7.794-6.807-11.646
		c0.362,3.783,0.719,7.566,1.074,11.35c-1.61-0.114-3.224-0.211-4.841-0.293c-0.625-6.334-1.253-12.668-1.884-19.002
		c1.845-0.562,3.699-1.104,5.563-1.626c1.799,3.445,3.537,6.908,5.215,10.387c-0.256-3.574-0.514-7.148-0.774-10.721
		c2.029-0.216,4.06-0.409,6.095-0.579c-0.429,7.134-0.806,14.27-1.13,21.405C64.751,38.924,63.914,39.165,63.079,39.411"/>
	<path clip-path="url(#SVGID_5_)" fill="#FFDD15" d="M66.81,33.797c2.574-5.109,5.312-10.179,8.215-15.202
		c-2.453,0.121-4.903,0.276-7.35,0.464c0.001-1.796,0.003-3.591,0.007-5.387c5.605-0.376,11.227-0.579,16.858-0.608
		c-2.993,5.14-5.825,10.328-8.495,15.558c2.377-0.064,4.755-0.095,7.134-0.093c-0.141,2.412-0.28,4.824-0.417,7.236
		C77.488,34.941,72.168,34.283,66.81,33.797"/>
	<path clip-path="url(#SVGID_5_)" fill="#FFDD15" d="M94.189,39.276c-0.194-1.744-0.394-3.489-0.602-5.234
		c-1.471-0.061-2.941-0.109-4.412-0.144c-0.331,1.475-0.659,2.951-0.982,4.428c-1.716-0.001-3.431,0.017-5.145,0.052
		c1.853-7.02,3.846-14.02,5.978-20.995c2.101-0.064,4.205-0.102,6.311-0.116c1.527,7.409,2.885,14.829,4.075,22.255
		C97.671,39.422,95.93,39.34,94.189,39.276 M91.911,23.494c-0.625,2.177-1.237,4.356-1.837,6.537c1.01,0.073,2.02,0.151,3.03,0.235
		C92.72,28.008,92.323,25.75,91.911,23.494"/>
	<path clip-path="url(#SVGID_5_)" fill="#FFDD15" d="M109.791,38.309c-1.413-4.256-2.924-8.502-4.532-12.734
		c-0.363,3.782-0.729,7.565-1.099,11.347c-1.574-0.419-3.154-0.823-4.74-1.212c0.588-6.337,1.174-12.676,1.756-19.014
		c1.933-0.199,3.873-0.377,5.819-0.535c1.126,3.726,2.189,7.458,3.191,11.195c0.427-3.558,0.852-7.116,1.275-10.674
		c2.052,0.176,4.105,0.375,6.157,0.598c-1.784,6.922-3.516,13.855-5.197,20.798C111.543,38.151,110.666,38.227,109.791,38.309"/>
	<path clip-path="url(#SVGID_5_)" fill="#9F1D2B" d="M125.311,43.307c0.019-1.756,0.031-3.512,0.036-5.269
		c-1.457-0.241-2.915-0.469-4.374-0.684c-0.509,1.424-1.015,2.849-1.516,4.275c-1.708-0.21-3.416-0.402-5.124-0.577
		c2.697-6.741,5.532-13.446,8.502-20.108c2.098,0.194,4.196,0.413,6.295,0.657c0.619,7.54,1.07,15.072,1.354,22.589
		C128.761,43.877,127.037,43.583,125.311,43.307 M124.962,27.362c-0.887,2.085-1.762,4.173-2.625,6.264
		c0.997,0.195,1.993,0.396,2.988,0.603C125.218,31.941,125.097,29.652,124.962,27.362"/>
	<path clip-path="url(#SVGID_5_)" fill="none" stroke="#9F1D2B" stroke-miterlimit="10" d="M125.311,43.307
		c0.019-1.756,0.031-3.512,0.036-5.269c-1.457-0.241-2.915-0.469-4.374-0.684c-0.509,1.424-1.015,2.849-1.516,4.275
		c-1.708-0.21-3.416-0.402-5.124-0.577c2.697-6.741,5.532-13.446,8.502-20.108c2.098,0.194,4.196,0.413,6.295,0.657
		c0.619,7.54,1.07,15.072,1.354,22.589C128.761,43.877,127.037,43.583,125.311,43.307z M124.962,27.362
		c-0.887,2.085-1.762,4.173-2.625,6.264c0.997,0.195,1.993,0.396,2.988,0.603C125.218,31.941,125.097,29.652,124.962,27.362z"/>
	<path clip-path="url(#SVGID_5_)" fill="#FFDD15" d="M124,41.542c0.022-1.755,0.036-3.511,0.045-5.268
		c-1.456-0.243-2.912-0.472-4.37-0.688c-0.511,1.423-1.018,2.848-1.521,4.273c-1.705-0.212-3.412-0.406-5.118-0.582
		c2.704-6.739,5.544-13.44,8.521-20.1c2.096,0.197,4.193,0.418,6.29,0.664c0.608,7.542,1.048,15.074,1.32,22.591
		C127.446,42.117,125.724,41.82,124,41.542 M123.674,25.598c-0.889,2.084-1.766,4.171-2.631,6.262
		c0.996,0.196,1.991,0.398,2.985,0.606C123.924,30.177,123.806,27.888,123.674,25.598"/>
	<path clip-path="url(#SVGID_5_)" fill="#FFDD15" d="M65.1,44.389c0.165-0.642,0.779-1.079,1.368-0.928
		c0.549,0.141,0.939,0.777,0.764,1.463c-0.154,0.6-0.736,1.078-1.364,0.918C65.318,45.701,64.925,45.075,65.1,44.389"/>
	<path clip-path="url(#SVGID_5_)" fill="#FFDD15" d="M71.713,47.339c-0.295-0.03-0.562-0.087-0.827-0.155
		c-2.589-0.664-3.263-2.846-2.755-4.828c0.559-2.185,2.553-4.13,4.984-3.506c0.177,0.045,0.351,0.101,0.522,0.168L73.132,41.8
		c-1.441-0.369-2.401,0.195-2.626,1.073c-0.186,0.729,0.445,1.2,1.113,1.37c0.323,0.083,0.612,0.1,0.887,0.046L71.713,47.339z"/>
	<path clip-path="url(#SVGID_5_)" fill="#FFDD15" d="M73.069,43.234c0.593-2.314,2.647-3.923,4.676-3.403
		c2.07,0.531,3.099,2.838,2.492,5.206c-0.579,2.26-2.669,3.848-4.709,3.326C73.517,47.848,72.484,45.516,73.069,43.234
		 M78.009,44.637c0.252-0.986-0.067-1.981-0.881-2.19c-0.893-0.229-1.729,0.505-1.982,1.491c-0.263,1.029-0.005,1.939,1.005,2.198
		C77.033,46.362,77.756,45.623,78.009,44.637"/>
	<polygon clip-path="url(#SVGID_5_)" fill="#FFDD15" points="85.399,50.63 86.174,46.182 84.02,49.363 83.116,49.303 82.987,45.604 
		81.143,49.7 79.248,48.654 82.812,41.233 84.365,41.573 84.595,45.857 87.096,42.296 88.678,42.895 87.842,51.131 	"/>
</g>
</svg>
