<?xml version="1.0" encoding="utf-8"?>
<!-- Generator: Adobe Illustrator 17.0.0, SVG Export Plug-In . SVG Version: 6.00 Build 0)  -->
<!DOCTYPE svg PUBLIC "-//W3C//DTD SVG 1.1//EN" "http://www.w3.org/Graphics/SVG/1.1/DTD/svg11.dtd">
<svg version="1.1" id="Layer_1" xmlns="http://www.w3.org/2000/svg" xmlns:xlink="http://www.w3.org/1999/xlink" x="0px" y="0px"
	 width="20px" height="20px" viewBox="0 0 20 20" enable-background="new 0 0 20 20" xml:space="preserve">
<g>
	<path fill="#DCDCDB" d="M10,2c4.411,0,8,3.589,8,8s-3.589,8-8,8s-8-3.589-8-8S5.589,2,10,2 M10,0C4.477,0,0,4.477,0,10
		s4.477,10,10,10s10-4.477,10-10S15.523,0,10,0L10,0z"/>
</g>
<g>
	<path fill="#DCDCDB" d="M8.757,11.609v-0.49c0-0.424,0.089-0.792,0.267-1.106C9.202,9.7,9.527,9.366,10,9.013
		c0.456-0.331,0.756-0.6,0.901-0.808c0.145-0.208,0.218-0.439,0.218-0.695c0-0.287-0.104-0.506-0.312-0.656
		c-0.208-0.15-0.499-0.225-0.872-0.225c-0.651,0-1.393,0.216-2.226,0.649L7,5.828C7.967,5.276,8.993,5,10.078,5
		c0.894,0,1.604,0.219,2.131,0.656S13,6.675,13,7.404c0,0.486-0.108,0.905-0.325,1.258s-0.629,0.751-1.236,1.192
		c-0.416,0.313-0.68,0.552-0.791,0.715c-0.111,0.163-0.166,0.377-0.166,0.642v0.397H8.757z M8.549,13.874
		c0-0.371,0.098-0.651,0.293-0.841c0.195-0.19,0.479-0.285,0.852-0.285c0.36,0,0.639,0.097,0.836,0.291s0.296,0.472,0.296,0.834
		c0,0.349-0.1,0.624-0.299,0.825S10.05,15,9.694,15c-0.364,0-0.646-0.098-0.846-0.295C8.649,14.509,8.549,14.232,8.549,13.874z"/>
</g>
</svg>
